<svg width="24" height="24" viewBox="0 0 24 24" fill="none" xmlns="http://www.w3.org/2000/svg">
<path d="M13.0249 3.25001C13.0249 2.91667 13.1499 2.65001 13.3999 2.45001C13.6499 2.25001 13.9332 2.18334 14.2499 2.25001C16.1666 2.68334 17.8041 3.58751 19.1624 4.96251C20.5207 6.33751 21.3999 7.98334 21.7999 9.90001C21.8666 10.1833 21.8041 10.4375 21.6124 10.6625C21.4207 10.8875 21.1582 11 20.8249 11H15.0499C14.9832 11 14.9249 10.9833 14.8749 10.95C14.8249 10.9167 14.7832 10.8667 14.7499 10.8C14.5999 10.45 14.3916 10.1375 14.1249 9.86251C13.8582 9.58751 13.5582 9.37501 13.2249 9.22501C13.1582 9.19167 13.1082 9.15417 13.0749 9.11251C13.0416 9.07084 13.0249 9.01667 13.0249 8.95001V3.25001ZM9.7249 21.725C7.49157 21.2083 5.6499 20.05 4.1999 18.25C2.7499 16.45 2.0249 14.3667 2.0249 12C2.0249 9.63334 2.7499 7.55417 4.1999 5.76251C5.6499 3.97084 7.49157 2.80834 9.7249 2.27501C10.0582 2.19167 10.3582 2.26251 10.6249 2.48751C10.8916 2.71251 11.0249 3.00001 11.0249 3.35001V9.00001C11.0249 9.01667 10.9749 9.08334 10.8749 9.20001C10.3082 9.43334 9.85824 9.80417 9.5249 10.3125C9.19157 10.8208 9.0249 11.3833 9.0249 12C9.0249 12.6167 9.19157 13.1708 9.5249 13.6625C9.85824 14.1542 10.3082 14.5167 10.8749 14.75C10.9082 14.7667 10.9582 14.8333 11.0249 14.95V20.65C11.0249 21 10.8916 21.2875 10.6249 21.5125C10.3582 21.7375 10.0582 21.8083 9.7249 21.725ZM14.1249 21.775C13.8416 21.8417 13.5874 21.7792 13.3624 21.5875C13.1374 21.3958 13.0249 21.15 13.0249 20.85V15.025C13.0249 14.9583 13.0416 14.9 13.0749 14.85C13.1082 14.8 13.1582 14.7583 13.2249 14.725C13.5582 14.575 13.8582 14.3667 14.1249 14.1C14.3916 13.8333 14.5999 13.5333 14.7499 13.2C14.7666 13.1667 14.8582 13.1 15.0249 13H20.8249C21.1249 13 21.3749 13.125 21.5749 13.375C21.7749 13.625 21.8416 13.9083 21.7749 14.225C21.3582 16.1417 20.4582 17.7792 19.0749 19.1375C17.6916 20.4958 16.0416 21.375 14.1249 21.775Z" fill="#2AA98B"/>
</svg>
