<svg width="24" height="24" viewBox="0 0 24 24" fill="none" xmlns="http://www.w3.org/2000/svg">
<path d="M13.025 3.25001C13.025 2.91667 13.15 2.65001 13.4 2.45001C13.65 2.25001 13.9334 2.18334 14.25 2.25001C16.1667 2.68334 17.8042 3.58751 19.1625 4.96251C20.5209 6.33751 21.4 7.98334 21.8 9.90001C21.8667 10.1833 21.8042 10.4375 21.6125 10.6625C21.4209 10.8875 21.1584 11 20.825 11H15.05C14.9834 11 14.925 10.9833 14.875 10.95C14.825 10.9167 14.7834 10.8667 14.75 10.8C14.6 10.45 14.3917 10.1375 14.125 9.86251C13.8584 9.58751 13.5584 9.37501 13.225 9.22501C13.1584 9.19167 13.1084 9.15417 13.075 9.11251C13.0417 9.07084 13.025 9.01667 13.025 8.95001V3.25001ZM9.72503 21.725C7.49169 21.2083 5.65002 20.05 4.20002 18.25C2.75002 16.45 2.02502 14.3667 2.02502 12C2.02502 9.63334 2.75002 7.55417 4.20002 5.76251C5.65002 3.97084 7.49169 2.80834 9.72503 2.27501C10.0584 2.19167 10.3584 2.26251 10.625 2.48751C10.8917 2.71251 11.025 3.00001 11.025 3.35001V9.00001C11.025 9.01667 10.975 9.08334 10.875 9.20001C10.3084 9.43334 9.85836 9.80417 9.52502 10.3125C9.19169 10.8208 9.02502 11.3833 9.02502 12C9.02502 12.6167 9.19169 13.1708 9.52502 13.6625C9.85836 14.1542 10.3084 14.5167 10.875 14.75C10.9084 14.7667 10.9584 14.8333 11.025 14.95V20.65C11.025 21 10.8917 21.2875 10.625 21.5125C10.3584 21.7375 10.0584 21.8083 9.72503 21.725ZM14.125 21.775C13.8417 21.8417 13.5875 21.7792 13.3625 21.5875C13.1375 21.3958 13.025 21.15 13.025 20.85V15.025C13.025 14.9583 13.0417 14.9 13.075 14.85C13.1084 14.8 13.1584 14.7583 13.225 14.725C13.5584 14.575 13.8584 14.3667 14.125 14.1C14.3917 13.8333 14.6 13.5333 14.75 13.2C14.7667 13.1667 14.8584 13.1 15.025 13H20.825C21.125 13 21.375 13.125 21.575 13.375C21.775 13.625 21.8417 13.9083 21.775 14.225C21.3584 16.1417 20.4584 17.7792 19.075 19.1375C17.6917 20.4958 16.0417 21.375 14.125 21.775Z" fill="#AEAEAE"/>
</svg>
