<svg width="24" height="24" viewBox="0 0 24 24" fill="none" xmlns="http://www.w3.org/2000/svg">
<path d="M11.8984 21.1016V19.1831L17.2272 13.8544L19.1457 15.7728L13.8169 21.1016H11.8984ZM2.89844 15.9174V14.2081H10.6734V15.9174H2.89844ZM20.2207 14.6978L18.3022 12.7793L19.0272 12.0543C19.1805 11.9011 19.3794 11.8244 19.624 11.8244C19.8685 11.8244 20.0674 11.9011 20.2207 12.0543L20.9457 12.7793C21.099 12.9326 21.1756 13.1315 21.1756 13.3761C21.1756 13.6206 21.099 13.8196 20.9457 13.9728L20.2207 14.6978ZM2.89844 11.6489V9.94565H14.8517V11.6489H2.89844ZM2.89844 7.3864V5.68315H14.8517V7.3864H2.89844Z" fill="#BDBDBD"/>
</svg>
