<svg width="24" height="24" viewBox="0 0 24 24" fill="none" xmlns="http://www.w3.org/2000/svg">
<path d="M11.1 11.1L12.9 11.1L12.9 14.8575L14.3175 13.44L15.6 14.7L12 18.3L8.39998 14.7L9.65998 13.4175L11.1 14.8575L11.1 11.1Z" fill="white"/>
<path d="M6.59999 21C6.10499 21 5.68124 20.8237 5.32874 20.4713C4.97624 20.1187 4.79999 19.695 4.79999 19.2V4.8C4.79999 4.305 4.97624 3.88125 5.32874 3.52875C5.68124 3.17625 6.10499 3 6.59999 3H13.8L19.2 8.4V19.2C19.2 19.695 19.0237 20.1187 18.6712 20.4713C18.3187 20.8237 17.895 21 17.4 21H6.59999ZM12.9 9.3V4.8H6.59999V19.2H17.4V9.3H12.9Z" fill="white"/>
</svg>
